<svg xmlns="http://www.w3.org/2000/svg" width="960" height="540" viewBox="0 0 960 540">
<rect width="960" height="540" fill="#ffffff"/>
<text x="480" y="38" text-anchor="middle" font-family="Arial" font-size="24" font-weight="bold" fill="#1f2937">Exercise Generation Performance</text>
<text x="480" y="62" text-anchor="middle" font-family="Arial" font-size="14" fill="#4b5563">ProblemGenerator generation time, r = 10</text>
<line x1="100" y1="440" x2="910" y2="440" stroke="#374151" stroke-width="1.5"/>
<line x1="100" y1="70" x2="100" y2="440" stroke="#374151" stroke-width="1.5"/>
<line x1="100" y1="440.00" x2="910" y2="440.00" stroke="#e5e7eb" stroke-width="1"/>
<text x="88" y="445.00" text-anchor="end" font-family="Arial" font-size="12" fill="#4b5563">0.000</text>
<line x1="100" y1="366.00" x2="910" y2="366.00" stroke="#e5e7eb" stroke-width="1"/>
<text x="88" y="371.00" text-anchor="end" font-family="Arial" font-size="12" fill="#4b5563">0.063</text>
<line x1="100" y1="292.00" x2="910" y2="292.00" stroke="#e5e7eb" stroke-width="1"/>
<text x="88" y="297.00" text-anchor="end" font-family="Arial" font-size="12" fill="#4b5563">0.127</text>
<line x1="100" y1="218.00" x2="910" y2="218.00" stroke="#e5e7eb" stroke-width="1"/>
<text x="88" y="223.00" text-anchor="end" font-family="Arial" font-size="12" fill="#4b5563">0.190</text>
<line x1="100" y1="144.00" x2="910" y2="144.00" stroke="#e5e7eb" stroke-width="1"/>
<text x="88" y="149.00" text-anchor="end" font-family="Arial" font-size="12" fill="#4b5563">0.254</text>
<line x1="100" y1="70.00" x2="910" y2="70.00" stroke="#e5e7eb" stroke-width="1"/>
<text x="88" y="75.00" text-anchor="end" font-family="Arial" font-size="12" fill="#4b5563">0.317</text>
<rect x="175.00" y="410.14" width="120.00" height="29.86" rx="3" fill="#2563eb"/>
<text x="235.00" y="402.14" text-anchor="middle" font-family="Arial" font-size="13" font-weight="bold" fill="#111827">0.026s</text>
<text x="235.00" y="468" text-anchor="middle" font-family="Arial" font-size="14" fill="#374151">1000</text>
<rect x="445.00" y="295.35" width="120.00" height="144.65" rx="3" fill="#059669"/>
<text x="505.00" y="287.35" text-anchor="middle" font-family="Arial" font-size="13" font-weight="bold" fill="#111827">0.124s</text>
<text x="505.00" y="468" text-anchor="middle" font-family="Arial" font-size="14" fill="#374151">5000</text>
<rect x="715.00" y="118.26" width="120.00" height="321.74" rx="3" fill="#d97706"/>
<text x="775.00" y="110.26" text-anchor="middle" font-family="Arial" font-size="13" font-weight="bold" fill="#111827">0.276s</text>
<text x="775.00" y="468" text-anchor="middle" font-family="Arial" font-size="14" fill="#374151">10000</text>
<text x="505.0" y="506" text-anchor="middle" font-family="Arial" font-size="15" fill="#374151">Number of generated problems</text>
<text x="28" y="255.0" text-anchor="middle" transform="rotate(-90 28 255.0)" font-family="Arial" font-size="15" fill="#374151">Time (seconds)</text>
</svg>
